<svg xmlns="http://www.w3.org/2000/svg" viewBox="0 0 32 32"><path fill="#fdd43c" d="M16,2.82a13.18,13.18,0,0,0,0,26.36A13.18,13.18,0,0,0,16,2.82Z"/><path fill="#65360f" d="M16,2.82a13.18,13.18,0,0,0,0,26.36A13.18,13.18,0,0,0,16,2.82Zm1,24.31v-.82a1,1,0,0,0-2,0v.82A11.11,11.11,0,0,1,5.05,17H6.36a1,1,0,0,0,0-2H5.05A11.11,11.11,0,0,1,15,4.87v.79a1,1,0,0,0,2,0V4.87A11.11,11.11,0,0,1,27,15h-.63a1,1,0,0,0,0,2H27A11.11,11.11,0,0,1,17,27.13Z"/><path fill="#65360f" d="M16,7.62a1,1,0,0,0-1,1v7l-3.41,3.27a1,1,0,0,0,0,1.42,1,1,0,0,0,.72.31,1,1,0,0,0,.69-.28l3.72-3.57A1,1,0,0,0,17,16V8.62A1,1,0,0,0,16,7.62Z"/></svg>